<svg xmlns="http://www.w3.org/2000/svg" width="22" height="22" viewBox="0 0 22 22" fill="none">
  <path d="M11 3.30017C6.48295 3.30017 2.93335 7.53263 2.93335 12.6015C2.93335 13.9886 3.2066 15.3078 3.6853 16.5002H4.73517C4.97813 17.2015 5.3369 17.7895 5.76122 18.1817C6.18554 18.574 6.65413 18.7507 7.10132 18.6873C7.38273 18.6471 7.64842 18.5127 7.88322 18.2918C8.11802 18.0709 8.31733 17.7678 8.46976 17.3999C8.62219 17.032 8.72475 16.6065 8.77159 16.1476C8.81842 15.6887 8.80861 15.2055 8.74272 14.7256C8.61839 13.8195 8.30113 12.9741 7.85251 12.3534C7.40389 11.7328 6.85593 11.3812 6.31499 11.3668C6.24228 11.365 6.1701 11.3693 6.09871 11.3798C5.70456 11.436 5.34345 11.6766 5.05512 12.0752C4.76678 12.4737 4.5624 13.0146 4.46447 13.6385C4.42651 13.2996 4.40575 12.9543 4.40575 12.6015C4.40575 8.20394 7.42025 4.76256 11 4.76256C14.5798 4.76256 17.5943 8.20394 17.5943 12.6015C17.5943 12.9577 17.5728 13.3065 17.5341 13.6485C17.4373 13.0229 17.2335 12.48 16.9454 12.0796C16.6573 11.6793 16.2959 11.4371 15.9013 11.3798C15.8299 11.3693 15.7578 11.365 15.685 11.3668C15.1441 11.3812 14.5961 11.7328 14.1475 12.3534C13.6989 12.9741 13.3816 13.8195 13.2573 14.7256C13.1914 15.2055 13.1816 15.6887 13.2284 16.1476C13.2753 16.6065 13.3778 17.032 13.5303 17.3999C13.6827 17.7678 13.882 18.0709 14.1168 18.2918C14.3516 18.5127 14.6173 18.6471 14.8987 18.6873C15.3459 18.7507 15.8145 18.574 16.2388 18.1817C16.6631 17.7895 17.0219 17.2015 17.2649 16.5002H18.3147C18.7934 15.3078 19.0667 13.9886 19.0667 12.6015C19.0667 7.53263 15.5171 3.30017 11 3.30017Z" fill="black"/>
</svg>