<svg xmlns="http://www.w3.org/2000/svg" width="17" height="17" viewBox="0 0 17 17" fill="none">
  <path d="M16.8803 8.49997C16.8803 8.76668 16.7744 9.02247 16.5858 9.21107C16.3972 9.39966 16.1414 9.50561 15.8747 9.50561H9.50564V15.8747C9.50564 16.1414 9.39969 16.3972 9.2111 16.5858C9.0225 16.7744 8.76671 16.8803 8.5 16.8803C8.23329 16.8803 7.9775 16.7744 7.78891 16.5858C7.60031 16.3972 7.49436 16.1414 7.49436 15.8747V9.50561H1.1253C0.858588 9.50561 0.602799 9.39966 0.414205 9.21107C0.225611 9.02247 0.119659 8.76668 0.119659 8.49997C0.119659 8.23326 0.225611 7.97747 0.414205 7.78887C0.602799 7.60028 0.858588 7.49433 1.1253 7.49433H7.49436V1.12527C7.49436 0.858557 7.60031 0.602769 7.78891 0.414174C7.9775 0.22558 8.23329 0.119629 8.5 0.119629C8.76671 0.119629 9.0225 0.22558 9.2111 0.414174C9.39969 0.602769 9.50564 0.858557 9.50564 1.12527V7.49433H15.8747C16.1414 7.49433 16.3972 7.60028 16.5858 7.78887C16.7744 7.97747 16.8803 8.23326 16.8803 8.49997Z" fill="#FAFAFA"/>
</svg>