<svg xmlns="http://www.w3.org/2000/svg" width="17" height="18" viewBox="0 0 17 18" fill="none">
  <g clip-path="url(#clip0_10_187)">
    <path d="M8.51611 0.5C3.82911 0.5 0.0161133 4.313 0.0161133 9C0.0161133 13.687 3.82911 17.5 8.51611 17.5C13.2031 17.5 17.0161 13.687 17.0161 9C17.0161 4.313 13.2021 0.5 8.51611 0.5ZM1.04111 9.5H3.97811C4.02211 10.524 4.18911 11.531 4.49111 12.5H1.88811C1.40711 11.594 1.11211 10.577 1.04111 9.5ZM3.97811 8.5H1.04111C1.11211 7.423 1.40711 6.406 1.88811 5.5H4.48811C4.18711 6.469 4.02111 7.476 3.97811 8.5ZM5.54711 5.5H11.4431C11.7731 6.465 11.9651 7.472 12.0121 8.5H4.97811C5.02411 7.472 5.21711 6.465 5.54711 5.5ZM4.97811 9.5H12.0131C11.9641 10.528 11.7721 11.535 11.4411 12.5H5.55011C5.21911 11.535 5.02611 10.528 4.97811 9.5ZM13.0131 9.5H15.9911C15.9201 10.577 15.6251 11.594 15.1441 12.5H12.5001C12.8021 11.531 12.9691 10.524 13.0131 9.5ZM13.0131 8.5C12.9701 7.476 12.8041 6.469 12.5031 5.5H15.1441C15.6241 6.406 15.9191 7.423 15.9911 8.5H13.0131ZM14.5021 4.5H12.1481C11.7561 3.545 11.2321 2.642 10.5981 1.8C12.1761 2.257 13.5361 3.22 14.5021 4.5ZM9.07411 1.528C9.89811 2.425 10.5581 3.428 11.0461 4.5H5.94411C6.43111 3.429 7.09011 2.427 7.91411 1.53C8.11311 1.515 8.31211 1.5 8.51611 1.5C8.70411 1.5 8.88911 1.515 9.07411 1.528ZM6.38311 1.813C5.75411 2.651 5.23211 3.55 4.84311 4.5H2.52911C3.48411 3.233 4.82611 2.276 6.38311 1.813ZM2.52911 13.5H4.84611C5.23711 14.451 5.76111 15.351 6.39311 16.189C4.83211 15.728 3.48611 14.77 2.52911 13.5ZM7.92611 16.47C7.10011 15.573 6.43811 14.571 5.94811 13.5H11.0421C10.5521 14.572 9.89011 15.575 9.06311 16.472C8.88211 16.485 8.70011 16.5 8.51611 16.5C8.31611 16.5 8.12111 16.485 7.92611 16.47ZM10.5871 16.203C11.2231 15.361 11.7511 14.456 12.1441 13.5H14.5021C13.5341 14.783 12.1701 15.747 10.5871 16.203Z" fill="black"/>
  </g>
  <defs>
    <clipPath id="clip0_10_187">
      <rect width="17" height="17" fill="white" transform="translate(0 0.5)"/>
    </clipPath>
  </defs>
</svg>